<svg xmlns="http://www.w3.org/2000/svg" viewBox="0 0 64 64" id="al-quran"><path fill="#037f79" d="M51 7H17.1c-2 0-3.9.8-5.2 2.2s-2.2 3.2-2.2 5.2v34.4c0-2 .8-3.9 2.2-5.2.4-.4.9-.8 1.4-1.1 1.1-.7 2.4-1 3.8-1h36.6c.3 0 .5-.2.5-.5V10.2C54.2 8.4 52.8 7 51 7z"></path><path fill="#025650" d="M20.7 7c-2 0-3.9.8-5.2 2.2-1.3 1.3-2.2 3.2-2.2 5.2v28.1c-.5.3-1 .7-1.4 1.1-1.3 1.3-2.2 3.2-2.2 5.2V14.4c0-2 .8-3.9 2.2-5.2C13.2 7.8 15.1 7 17.1 7h3.6z"></path><path fill="#059187" d="M29.4 7c-2 0-3.9.8-5.2 2.2-1.3 1.3-2.2 3.2-2.2 5.2v27h-5c-1.4 0-2.7.4-3.8 1v-28c0-2 .8-3.9 2.2-5.2C16.8 7.8 18.7 7 20.7 7h8.7z"></path><path fill="#03726a" d="M54.2 10.2v30.7c0 .3-.2.5-.5.5H41.4c4.6 0 8.3-3.7 8.3-8.3V15.3c0-4.6-3.7-8.3-8.3-8.3H51c1.8 0 3.2 1.4 3.2 3.2z"></path><path fill="#037f79" d="M49.7 15.3v17.8c0 4.6-3.7 8.3-8.3 8.3H22.1v-27c0-2 .8-3.9 2.2-5.2C25.6 7.8 27.4 7 29.4 7h11.9c4.6 0 8.4 3.7 8.4 8.3z"></path><path fill="#8cafa9" d="M52.9 46.2c0-.4.1-.7.2-1.1 0-.1 0-.2.1-.3l.3-1.2c.1-.4.3-.9.5-1.3.1-.3.2-.9.4-1.2l-37.1.4c-2 0-3.9.8-5.2 2.2-1.2 1.2-1.9 2.7-2.1 4.4 0 .1 0 .3.1.4l.3 1.2c-.4-.6-.5-1.2-.6-1.7 0 .3-.1.5-.1.8 0 4.1 3.3 7.4 7.4 7.4h35.4c.8 0 1.4-.8 1.2-1.6-.1-.4-.2-.8-.4-1.3-.1-.3-.2-.7-.2-1.1 0-.1 0-.3-.1-.4 0-.3-.1-.5-.1-.8 0-.2 0-.4-.1-.5 0-.3-.1-.6-.1-.9V47.7c.1-.6.1-1.1.2-1.5zm-40.2 6.9-.1-.1c.1 0 .1.1.1.1zm-.5-.4-.1-.1s.1 0 .1.1zm-1.8-2.5c-.1-.2-.1-.3-.2-.5.1.1.1.3.2.5zm1 1.5-.2-.2c.1.1.1.2.2.2zm-.4-.5c-.1-.1-.1-.2-.2-.3.1.2.1.2.2.3zm-.3-.5c-.1-.1-.1-.3-.2-.4 0 .2.1.3.2.4zm.9 1.4c0 .1.1.1.1.2 0-.1 0-.2-.1-.2zm1.6 1.3s.1 0 .1.1l-.1-.1zm.5.3s.1 0 .1.1c0 0 0-.1-.1-.1zm.6.3s.1 0 .1.1c0-.1 0-.1-.1-.1zm.6.2c.1 0 .1 0 .2.1-.1-.1-.1-.1-.2-.1zm.7.2h.2-.2zm.7.1h.2-.2z"></path><path fill="#f2d249" d="M41.1 27.6c.8-1 1.3-2.2 1.6-3.4 0 2.2-.8 4.3-2.2 6.2-3.6 4.8-10.4 5.7-15.1 2.1-4.7-3.6-5.7-10.3-2.1-15.1 1.4-1.8 3.3-3.1 5.4-3.7-1 .6-2 1.4-2.8 2.5-3.2 4.2-2.5 10.2 1.8 13.4 4.3 3.1 10.2 2.2 13.4-2z"></path><path fill="#f2d249" d="m31.3 21 .6-3.5 2.3 2.6 3.5-.5-1.7 3 1.5 3.1-3.4-.6-2.5 2.4-.4-3.5-3.1-1.6z"></path><path fill="#b9d6d3" d="M53.7 54.6c.2.8-.3 1.6-1.2 1.6H17.1c-4.1 0-7.4-3.3-7.4-7.4 0-.3 0-.5.1-.8.4 3.7 3.5 6.6 7.3 6.6h36.6z"></path><path fill="#d5efec" d="M54.2 41c-.1.3-.2.9-.4 1.2H17.1c-2 0-3.9.8-5.2 2.2-1.1 1.1-1.8 2.4-2 4 0-.1-.1-.3-.1-.4.2-1.7 1-3.2 2.1-4.4 1.3-1.3 3.2-2.2 5.2-2.2l37.1-.4z"></path><path fill="#c3e2df" d="M53.3 53.2c.1.5.2.9.4 1.3H17.1c-3.7 0-6.7-2.7-7.2-6.2.2-1.5 1-2.9 2-4 1.3-1.3 3.2-2.2 5.2-2.2h36.8c-.2.4-.3.9-.5 1.3-.4 1.4-.6 2.7-.7 4v1.1c.1 1.9.3 3.5.6 4.7z"></path><path fill="#b6d6d2" d="M52.9 50.6c.1 1 .3 1.9.4 2.6H17.7c-2.5 0-4.7-1.3-5.8-3.2-.6-1.1-.6-2.4.1-3.5.3-.5.6-.9 1-1.2 1.3-1.2 2.9-1.8 4.7-1.8h35.8c-.3.9-.4 1.8-.5 2.6-.1.5-.1.9-.1 1.4v1.1c-.1.7-.1 1.4 0 2z"></path><path fill="#a1c4bf" d="M52.8 49.3c0 .5.1.9.1 1.3H18.4c-1.2 0-2.4-.2-3.3-.7-.9-.6-1-1.9-.2-2.6.9-.7 2.1-1.1 3.5-1.1h34.5c-.1.4-.1.9-.1 1.3V49.3z"></path><path fill="#8cafa9" d="M52.8 49.3h-34c-.9 0-1.8-.1-2.5-.3-.2-.1-.4-.1-.5-.2-.1-.1-.1-.2-.1-.2 0-.1 0-.2.1-.2.8-.5 1.9-.8 3.1-.8h34V48.8c-.1 0-.1.3-.1.5z"></path><path fill="#f2d249" d="M19.8 49.3v4.4L16.3 57v-8c.7.2 1.5.3 2.5.3h1z"></path><path fill="#e0c13f" d="M23.3 49.3V57l-3.5-3.3v-4.4z"></path></svg>