<svg xmlns="http://www.w3.org/2000/svg" xmlns:xlink="http://www.w3.org/1999/xlink" viewBox="0 0 24 24" id="god-alloh-swt"><defs><linearGradient id="a" x1="2" x2="22" y1="12" y2="12" gradientUnits="userSpaceOnUse"><stop offset="0" stop-color="#16b0e2"></stop><stop offset="1" stop-color="#6e5af0"></stop></linearGradient><linearGradient id="b" x1="7.116" x2="16.884" y1="13.395" y2="13.395" xlink:href="#a"></linearGradient><linearGradient id="c" x1="7.116" x2="16.884" y1="8.279" y2="8.279" xlink:href="#a"></linearGradient></defs><path fill="url(#a)" d="M21.8,12.493,19.209,15.08v3.432a.7.7,0,0,1-.7.7H15.08L12.493,21.8a.7.7,0,0,1-.986,0L8.92,19.209H5.488a.7.7,0,0,1-.7-.7V15.073L2.2,12.393a.7.7,0,0,1,.017-.987L4.791,8.914V5.488a.7.7,0,0,1,.7-.7H8.92L11.507,2.2a.7.7,0,0,1,.986,0L15.08,4.791h3.432a.7.7,0,0,1,.7.7V8.92L21.8,11.507A.7.7,0,0,1,21.8,12.493Z" opacity=".4"></path><path fill="url(#b)" d="M16.186,10.372a.7.7,0,0,0-.7.7v3.953H14.093V11.07a.7.7,0,1,0-1.395,0v3.953H11.3V11.07a.7.7,0,0,0-.7-.7H7.814a.7.7,0,1,0,0,1.395H9.907v.466H7.814a.7.7,0,0,0-.7.7v2.791a.7.7,0,0,0,.7.7h8.372a.7.7,0,0,0,.7-.7V11.07A.7.7,0,0,0,16.186,10.372ZM9.907,15.023H8.512V13.628H9.907Z"></path><path fill="url(#c)" d="M7.116,8.279a.7.7,0,0,1,.7-.7h8.372a.7.7,0,1,1,0,1.4H7.814A.7.7,0,0,1,7.116,8.279Z"></path></svg>