<svg xmlns="http://www.w3.org/2000/svg" viewBox="0 0 512 512" id="pray"><path fill="#f7e2c1" d="M201.9 392.3v24.8h-20.8c-9.6 11-23.7 17.9-39.4 17.9-1.3 0-2.6 0-3.8-.1s-2.4-.2-3.5-.4c-1.8-.8-3.1-2.7-3.1-4.9s1.3-4 3.1-4.9c.8-.1 1.6-.3 2.4-.5 5.4-1.4 10.3-3.9 14.6-7.2 6.1-4.8 10.9-11.3 13.4-18.8 0-.4-.1-.8-.1-1.2 0-1.8.5-3.5 1.4-4.9h.2c0-.2.1-.3.1-.5 1.7-2.4 4.5-4 7.7-4 3.4 0 6.4 1.8 8.1 4.5h19.7v.2z"></path><path fill="#208956" d="M352.5 390.6c-.3 20.1-17.2 36-37.3 36H190.7v-7.3h124.4c19.1 0 35.3-14.3 37.2-32.9.1 1.4.2 2.8.2 4.2z"></path><path fill="#55c58f" d="M352.3 386.4c-1.9 18.6-18.1 32.9-37.2 32.9H190.7v-36.8h89.5v-.5h-47c-8.3 0-15.9-2.5-22.1-6.8-2.6-1.8-5-4-7.2-6.4-4.6-5.2-7.1-11.9-7.5-18.8-.6-10.5-1.6-30-2.6-48.1-1.1-21-2.1-40.1-2.1-41 0-1.8 0-3.5.1-5.3 1-29.4 10.4-52.6 40.5-53 32.7-.5 59.2 26.5 59.2 59.2v48.8c0 8.1 3.6 15.7 9.8 20.9l32.9 27.1 9 7.4c5 5.5 8.3 12.6 9.1 20.4z"></path><path fill="#aa9673" d="M201.9 411.4v5.7h-20.8c-9.6 11-23.7 17.9-39.4 17.9h-1c17.5-1.5 38.3-23.7 38.3-23.7h22.9v.1z"></path><path fill="#2bb673" d="M352 388.5c-2.8 17.6-18.5 30.8-36.9 30.8H190.7v-36.8h89.5v-.5h-47c-8.3 0-15.9-2.5-22.1-6.8-2.6-1.8-5-4-7.2-6.4-4.6-5.2-7.1-11.9-7.5-18.8-.6-10.5-1.6-30-2.6-48.1-1.1-21-2.1-40.1-2.1-41 0-1.8 0-3.5.1-5.3.6-19 4.8-35.4 15.8-44.8-1.2 7.7-1.7 15.6-1.7 23.6 0 84.1 65.1 152.5 146.1 154.1z"></path><path fill="#208956" d="M196.5 350.1c-.6-10.5-1.6-30-2.6-48.1 12.5 40.9 39.3 69.3 86.3 80.1h-47c-11.9 0-22.1-5.1-29.3-13.2-4.5-5.3-7-11.9-7.4-18.8z"></path><path fill="#231f20" d="m279.9 126.6-45.2 13.8-45.2 13.8-6.9-22.7-6.9-22.7c-.6-2.1-.4-4.3.6-6s2.6-3.2 4.7-3.9l37.6-11.5L256.1 76c2.1-.6 4.3-.4 6 .6 1.8 1 3.2 2.6 3.9 4.7l6.9 22.7 7 22.6z"></path><path d="m203.9 149.8-14.5 4.4-14.1-46c-1.2-3.8 1-7.9 4.8-9.1l7.6-2.3 16.2 53z"></path><path fill="#fff200" d="m176.683 112.513 90.466-27.66 1.17 3.826-90.466 27.66z"></path><path fill="#f9e8cd" d="m189.5 154.2 90.3-27.6 4.6 15.2c7.5 24.5-5.9 50.6-30.4 58.7-4 1.3-8 2.1-12 2.3-20.9 1.3-40.9-11.5-47.8-32.4-.1-.3-.2-.7-.3-1l.2-.1-4.6-15.1z"></path><path fill="#414042" d="M218.6 162.4c1.7 5.1 7.1 7.8 12.2 6.1l11.3 34.3c-20.9 1.3-40.9-11.5-47.8-32.4l-5-16.2 61.6-18.8c-4.4 6.7-10.7 12.2-18.6 15.5-2.3-1.3-5-1.6-7.7-.7-2.1.7-3.9 2.1-5 3.9-1.5 2.4-1.9 5.4-1 8.3z"></path><path d="M242.1 202.8c-20.9 1.3-40.9-11.5-47.8-32.4l-5-16.2 14.5-4.4c1.8 23.7 17 43.7 38.1 52.4l.2.6z"></path><path fill="#f7e2c1" d="m333.3 224.3-12.6 13.8 13.9 12.7 12.6-13.8c9.6-6.9 18.2-16.8 26-28.4l-.6-13.4-.6-13.4c-.1-1.3-.6-2.5-1.5-3.3s-2.1-1.3-3.4-1.2c-2.6.1-4.6 2.3-4.5 5l1 22.9-11.6 12.6 7.8-8.6c3.5-3.9 3.3-9.9-.6-13.4-11.4 8.5-20.9 17.7-25.9 28.5z"></path><path fill="#f7e2c1" d="m341.3 226.8-12.6 13.8 13.9 12.7 12.6-13.8c9.6-6.9 18.2-16.8 26-28.4l-.6-13.4-.6-13.4c-.1-1.3-.6-2.5-1.5-3.3s-2.1-1.3-3.4-1.2c-2.6.1-4.6 2.3-4.5 5l1 22.9-11.6 12.6 7.8-8.6c3.5-3.9 3.3-9.9-.6-13.4-11.4 8.5-20.9 17.7-25.9 28.5z"></path><path fill="#2bb673" d="m305.8 262.2 27.2-25.9-11.3-12-32.4 31.3 8.5 6.9c2.4 1.9 5.8 1.8 8-.3z"></path><path fill="#55c58f" d="m329.1 226.5-26.9 25.2c-2.2 2.1-5.6 2.2-7.9.3l-25.7-20.7-4.9 43.6.7.5 12.3 8.8 9.9 7.1 6.3 4.5c7.9 5.6 18.8 4.5 25.3-2.7l9.6-10.6 25.8-28.5 3.3-3.6-27.8-23.9z"></path><path fill="#208956" d="M263.7 275c4.3 3.1 8.7 6.2 13 9.3l9.9 7.1 6.3 4.5c7.9 5.7 18.8 4.5 25.3-2.7l9.6-10.6 29.1-32-5.9-5.1-25 27.6-9.6 10.6c-16.2 14.4-45.7-6.5-52.7-8.7z"></path><path fill="#77d1a5" d="M300.9 257.5c-1.7 1.6-4.4 1.7-6.3.3l-26-26.5 25.7 20.7c2.3 1.9 5.7 1.8 7.9-.3l26.9-25.2-28.2 31z"></path><path fill="#aa9673" d="M370.6 186.3c.6 3.2 1 6.4 1.4 9.5.3 3.2.4 6.4.5 9.6V206.7c0 .5-.2 1.1-.4 1.6-.1.2-.2.5-.4.7l-.3.3-.2.2-.8.9-3.3 3.5-6.5 7c-.3.4-.9.4-1.3 0s-.4-.9 0-1.3l4.5-4.8 2.3-2.4 1.1-1.2c.3-.4.7-.8.9-1.2 1.1-1.7 1.7-3.8 1.5-5.9-.1-1-.4-2-.8-3-.3-1-.8-2.1-1.6-2.8.8.7 1.7 1.4 2.4 2.4.6 1 1 2.1 1.2 3.3.4 2.3-.1 4.8-1.4 6.8-.3.5-.7 1-1.1 1.4l-1.1 1.2-2.2 2.5-4.4 4.9-.1-1.3-1.3.1 6.4-7.1 3.2-3.6.8-.9.2-.2s.1-.1.1-.2c.1-.1.1-.2.2-.3.1-.2.2-.5.2-.8v-1.1c-.1-3.2-.3-6.4-.3-9.6.2-3.1.3-6.3.6-9.5zm-8.3 15.9c-3.8 3.1-7.3 6.2-10.4 9.5-4.4 4.7-8 9.7-10.5 15.1l-5.2 5.7c1.8-.8 13.4-27.5 26.1-30.3z"></path></svg>